<svg xmlns="http://www.w3.org/2000/svg"><symbol id="white-pawn" viewBox="6 2 52 58"><path d="M14,58 h36 v-4 h-36 z M17,53 h30 v-3 h-30 z M32,10 a7,7 0 1,0 0.01,0 z M25,24 h14 l3,4 h-20 z M27,29 h10 l4,21 h-18 z" fill="#F2F4F0" stroke="#050605" stroke-width="2" stroke-linejoin="round"/></symbol><symbol id="white-rook" viewBox="6 2 52 58"><path d="M14,58 h36 v-4 h-36 z M17,53 h30 v-3 h-30 z M19,9 h6 v6 h4 v-6 h6 v6 h4 v-6 h6 v11 h-26 z M22,21 h20 l-1,4 h-18 z M24,26 h16 l2,24 h-20 z" fill="#F2F4F0" stroke="#050605" stroke-width="2" stroke-linejoin="round"/></symbol><symbol id="white-knight" viewBox="6 2 52 58"><path d="M14,58 h36 v-4 h-36 z M17,53 h30 v-3 h-30 z M23,50 L25,38 C20,36 17,33 18,29 L27,21 L33,15 L34,9 L37,14 L41,10 L42,17 C45,20 46,25 45,31 L43,50 Z M26,29 C24,31 23,33 24,35 L27,33 C26,31 26,30 26,29 Z" fill="#F2F4F0" stroke="#050605" stroke-width="2" stroke-linejoin="round"/></symbol><symbol id="white-bishop" viewBox="6 2 52 58"><path d="M14,58 h36 v-4 h-36 z M17,53 h30 v-3 h-30 z M32,7 a3.2,3.2 0 1,0 0.01,0 z M32,13 c7,4 10,10 10,17 c0,4 -2,7 -4,9 h-12 c-2,-2 -4,-5 -4,-9 c0,-7 3,-13 10,-17 z M36,19 l-9,11 l2.2,2 l9,-11 z M25,40 h14 l3,10 h-20 z" fill="#F2F4F0" stroke="#050605" stroke-width="2" stroke-linejoin="round"/></symbol><symbol id="white-queen" viewBox="6 2 52 58"><path d="M14,58 h36 v-4 h-36 z M17,53 h30 v-3 h-30 z M32,5 a3,3 0 1,0 0.01,0 z M20,10 a2.8,2.8 0 1,0 0.01,0 z M44,10 a2.8,2.8 0 1,0 0.01,0 z M20,13 l5,12 l7,-14 l7,14 l5,-12 l-2,20 h-20 z M24,34 h16 l3,16 h-22 z" fill="#F2F4F0" stroke="#050605" stroke-width="2" stroke-linejoin="round"/></symbol><symbol id="white-king" viewBox="6 2 52 58"><path d="M14,58 h36 v-4 h-36 z M17,53 h30 v-3 h-30 z M30,4 h4 v4 h4 v4 h-4 v4 h-4 v-4 h-4 v-4 h4 z M21,19 c5,-4 17,-4 22,0 l-3,15 h-16 z M23,35 h18 l3,15 h-24 z" fill="#F2F4F0" stroke="#050605" stroke-width="2" stroke-linejoin="round"/></symbol><symbol id="black-pawn" viewBox="6 2 52 58"><path d="M14,58 h36 v-4 h-36 z M17,53 h30 v-3 h-30 z M32,10 a7,7 0 1,0 0.01,0 z M25,24 h14 l3,4 h-20 z M27,29 h10 l4,21 h-18 z" fill="#0D100F" stroke="#39F194" stroke-width="2" stroke-linejoin="round"/></symbol><symbol id="black-rook" viewBox="6 2 52 58"><path d="M14,58 h36 v-4 h-36 z M17,53 h30 v-3 h-30 z M19,9 h6 v6 h4 v-6 h6 v6 h4 v-6 h6 v11 h-26 z M22,21 h20 l-1,4 h-18 z M24,26 h16 l2,24 h-20 z" fill="#0D100F" stroke="#39F194" stroke-width="2" stroke-linejoin="round"/></symbol><symbol id="black-knight" viewBox="6 2 52 58"><path d="M14,58 h36 v-4 h-36 z M17,53 h30 v-3 h-30 z M23,50 L25,38 C20,36 17,33 18,29 L27,21 L33,15 L34,9 L37,14 L41,10 L42,17 C45,20 46,25 45,31 L43,50 Z M26,29 C24,31 23,33 24,35 L27,33 C26,31 26,30 26,29 Z" fill="#0D100F" stroke="#39F194" stroke-width="2" stroke-linejoin="round"/></symbol><symbol id="black-bishop" viewBox="6 2 52 58"><path d="M14,58 h36 v-4 h-36 z M17,53 h30 v-3 h-30 z M32,7 a3.2,3.2 0 1,0 0.01,0 z M32,13 c7,4 10,10 10,17 c0,4 -2,7 -4,9 h-12 c-2,-2 -4,-5 -4,-9 c0,-7 3,-13 10,-17 z M36,19 l-9,11 l2.2,2 l9,-11 z M25,40 h14 l3,10 h-20 z" fill="#0D100F" stroke="#39F194" stroke-width="2" stroke-linejoin="round"/></symbol><symbol id="black-queen" viewBox="6 2 52 58"><path d="M14,58 h36 v-4 h-36 z M17,53 h30 v-3 h-30 z M32,5 a3,3 0 1,0 0.01,0 z M20,10 a2.8,2.8 0 1,0 0.01,0 z M44,10 a2.8,2.8 0 1,0 0.01,0 z M20,13 l5,12 l7,-14 l7,14 l5,-12 l-2,20 h-20 z M24,34 h16 l3,16 h-22 z" fill="#0D100F" stroke="#39F194" stroke-width="2" stroke-linejoin="round"/></symbol><symbol id="black-king" viewBox="6 2 52 58"><path d="M14,58 h36 v-4 h-36 z M17,53 h30 v-3 h-30 z M30,4 h4 v4 h4 v4 h-4 v4 h-4 v-4 h-4 v-4 h4 z M21,19 c5,-4 17,-4 22,0 l-3,15 h-16 z M23,35 h18 l3,15 h-24 z" fill="#0D100F" stroke="#39F194" stroke-width="2" stroke-linejoin="round"/></symbol></svg>