<svg xmlns="http://www.w3.org/2000/svg" width="64" height="64" viewBox="0 0 64 64"><g fill="#0D100F" stroke="#39F194" stroke-width="2" stroke-linejoin="round" stroke-linecap="round"><g transform="translate(32 50) scale(0.8 1.1) translate(-32 -50)"><path vector-effect="non-scaling-stroke" d="M22,50 C22,42 26,38 28,35 L36,35 C38,38 42,42 42,50 Z"></path><rect vector-effect="non-scaling-stroke" x="25" y="30" width="14" height="5" rx="1"></rect><path vector-effect="non-scaling-stroke" d="M32,11 C38,16 40,23 38,30 L26,30 C24,23 26,16 32,11 Z"></path><path vector-effect="non-scaling-stroke" d="M30,17 L36,24" fill="none"></path><circle vector-effect="non-scaling-stroke" cx="32" cy="8" r="2.5"></circle></g><path d="M18,48 L29,48 L32,51.5 L35,48 L46,48 L46,56 L18,56 Z"></path></g></svg>